PathFileType	4	(X/Y/Z)	C:\Vicon\SynologyDrive\Alex P\Athlete_3\Athlete_3_22_07_06\static_01\marker_experimental.trc																																																																																																																																																																																																																									
DataRate	CameraRate	NumFrames	NumMarkers	Units	OrigDataRate	OrigDataStartFrame	OrigNumFrames																																																																																																																																																																																																																					
200	200	5	79	mm	200	606	693																																																																																																																																																																																																																					
Frame#	Time	GLAB			RFHD			LFHD			C7			T6			SPINMOL			SPINM2			SPINM3			T12			BELTOL			BELT2			BELT3			SACROL			SACR2			SACR3			LASI			RASI			LPSI			RPSI			LTHOL			LTH2			LTH3			LKNEL			LKNEM			LFIB			LSHAOL			LSHA2			LSHA3			LMALL			LMALM			LHEE			LTOE			LM5			RTHOL			RTH2			RTH3			RKNEL			RKNEM			RFIB			RSHAOL			RSHA2			RSHA3			RMALL			RMALM			RHEE			RTOE			RM5			STRN			XIPH			LACR			LUAOL			LUA2			LUA3			LCUBL			LCUBM			LLAOL			LLA2			LLA3			LWRR			LWRU			RACR			RUAOL			RUA2			RUA3			RCUBL			RCUBM			RLAOL			RLA2			RLA3			RWRR			RWRU			Bar:BL			Bar:BR		 	LKJCWK			RKJCWK			RAJCWK			LAJCWK			RHJCWK			LHJCWK
		X1	Y1	Z1	X2	Y2	Z2	X3	Y3	Z3	X4	Y4	Z4	X5	Y5	Z5	X6	Y6	Z6	X7	Y7	Z7	X8	Y8	Z8	X9	Y9	Z9	X10	Y10	Z10	X11	Y11	Z11	X12	Y12	Z12	X13	Y13	Z13	X14	Y14	Z14	X15	Y15	Z15	X16	Y16	Z16	X17	Y17	Z17	X18	Y18	Z18	X19	Y19	Z19	X20	Y20	Z20	X21	Y21	Z21	X22	Y22	Z22	X23	Y23	Z23	X24	Y24	Z24	X25	Y25	Z25	X26	Y26	Z26	X27	Y27	Z27	X28	Y28	Z28	X29	Y29	Z29	X30	Y30	Z30	X31	Y31	Z31	X32	Y32	Z32	X33	Y33	Z33	X34	Y34	Z34	X35	Y35	Z35	X36	Y36	Z36	X37	Y37	Z37	X38	Y38	Z38	X39	Y39	Z39	X40	Y40	Z40	X41	Y41	Z41	X42	Y42	Z42	X43	Y43	Z43	X44	Y44	Z44	X45	Y45	Z45	X46	Y46	Z46	X47	Y47	Z47	X48	Y48	Z48	X49	Y49	Z49	X50	Y50	Z50	X51	Y51	Z51	X52	Y52	Z52	X53	Y53	Z53	X54	Y54	Z54	X55	Y55	Z55	X56	Y56	Z56	X57	Y57	Z57	X58	Y58	Z58	X59	Y59	Z59	X60	Y60	Z60	X61	Y61	Z61	X62	Y62	Z62	X63	Y63	Z63	X64	Y64	Z64	X65	Y65	Z65	X66	Y66	Z66	X67	Y67	Z67	X68	Y68	Z68	X69	Y69	Z69	X70	Y70	Z70	X71	Y71	Z71	X72	Y72	Z72	X73	Y73	Z73	X74 	Y74 	Z74 	X75 	Y75 	Z75 	X76 	Y76 	Z76 	X77 	Y77 	Z77 	X78 	Y78 	Z78 	X79 	Y79 	Z79
																																																																																																																																																																																																																												
607	3.03	350.5628	1575.4556	-1216.9241	291.993	1589.5341	-1140.0859	287.1202	1589.979	-1292.2654	127.995	1448.4169	-1212.563	75.7746	1243.1947	-1227.3438	71.7055	1211.046	-1231.4323	67.3252	1150.2717	-1179.3706	76.0168	1149.2734	-1228.3278	90.2095	1108.8829	-1227.2716	67.5969	1086.3248	-1226.5824	69.1221	1026.7665	-1173.4434	61.5108	1024.5336	-1223.0327	72.1515	975.4546	-1248.4271	79.1274	985.0285	-1198.6018	48.7874	926.8651	-1209.7672	288.5459	942.508	-1337.0416	292.6279	942.141	-1109.2747	83.7008	991.3992	-1260.1815	84.3612	990.0626	-1170.9277	202.5964	737.5587	-1444.2863	153.4295	676.9138	-1427.3912	201.7606	675.5603	-1441.4299	193.1701	497.7707	-1427.6055	216.7195	466.0879	-1283.7421	152.9353	442.2368	-1428.5974	145.3589	326.1834	-1450.0262	102.057	260.256	-1444.6941	151.422	264.3333	-1450.2672	126.1904	85.3427	-1434.1261	169.4241	96.3089	-1350.4868	78.4577	38.9385	-1374.8085	289.6695	47.3131	-1391.2336	238.5825	32.0914	-1492.1582	175.0026	708.2953	-1006.7056	206.3812	636.0677	-992.9798	160.634	647.6509	-1009.8733	160.6115	496.9355	-1014.0778	209.146	461.4725	-1151.7931	116.6358	442.4996	-1015.6237	91.2069	323.3171	-998.2927	131.0101	256.1099	-983.2805	84.9491	262.2108	-1002.459	90.0612	86.7645	-1016.7982	153.0804	97.0079	-1084.2731	58.0563	38.251	-1077.6779	261.5986	43.2133	-1022.2434	202.3483	40.9496	-937.2036	278.8803	1368.5336	-1225.3119	318.5148	1211.1058	-1227.3035	139.0287	1413.4895	-1400.9193	128.2521	1348.1747	-1514.8909	120.0881	1297.7078	-1557.5439	153.7388	1333.7935	-1574.2694	166.8113	1296.9651	-1682.6326	190.0412	1211.0607	-1632.7167	197.1385	1266.0277	-1768.0791	203.9409	1229.7322	-1822.6387	242.3307	1261.5933	-1815.6954	312.9395	1191.0908	-1860.5665	255.9741	1212.8038	-1903.757	156.429	1402.7877	-1042.1178	167.8072	1335.8527	-909.4974	218.1308	1327.6665	-866.7341	173.1516	1316.1019	-846.0599	165.9434	1289.5168	-795.5391	222.0242	1196.0642	-809.4301	224.1267	1272.0112	-673.1899	274.9816	1260.7639	-633.7053	230.3197	1247.5793	-613.3611	313.3372	1180.5798	-580.9607	247.1812	1212.5703	-544.2077	1512.0901	1285.4515	-2307.4075	1540.6605	1283.3982	-83.9427	204.9448	481.9293	-1355.6738	184.8788	479.204	-1082.9355	119.8616	81.4294	-1049.6609	146.2628	80.2545	-1393.2966	233.0086	873.4784	-1139.7555	230.0531	873.7442	-1304.665
608	3.035	350.5274	1575.4565	-1216.8948	291.969	1589.5374	-1140.0551	287.0992	1589.9838	-1292.236	127.983	1448.4132	-1212.5436	75.7648	1243.1924	-1227.3309	71.6973	1211.047	-1231.4241	67.3217	1150.2693	-1179.3615	76.0063	1149.2841	-1228.314	90.1974	1108.8827	-1227.2657	67.5904	1086.3223	-1226.5712	69.1228	1026.77	-1173.4347	61.505	1024.536	-1223.033	72.146	975.4519	-1248.4106	79.1361	984.9878	-1198.6132	48.7918	926.8826	-1209.7495	288.5472	942.5139	-1337.0416	292.6408	942.1212	-1109.2781	83.7071	991.3982	-1260.1763	84.3573	990.0563	-1170.9319	202.5917	737.5613	-1444.2816	153.422	676.9182	-1427.3997	201.7521	675.5613	-1441.4409	193.1649	497.7731	-1427.6	216.6946	466.0912	-1283.7412	152.9278	442.2358	-1428.597	145.3614	326.1859	-1450.03	102.0552	260.26	-1444.7002	151.4156	264.3368	-1450.266	126.1911	85.3438	-1434.1282	169.4156	96.3108	-1350.485	78.4544	38.9363	-1374.8164	289.671	47.3088	-1391.2333	238.5807	32.0945	-1492.1595	174.9997	708.2969	-1006.7061	206.356	636.0667	-992.9675	160.6098	647.6442	-1009.8777	160.5978	496.9391	-1014.0836	209.134	461.4622	-1151.7933	116.6344	442.5063	-1015.6227	91.3747	323.2961	-998.6039	131.0002	256.1023	-983.2735	84.9527	262.2108	-1002.4617	90.0673	86.762	-1016.7974	153.0806	97.0023	-1084.2731	58.0543	38.2546	-1077.6775	261.5876	43.1946	-1022.2997	202.3402	40.9556	-937.1995	278.8597	1368.5245	-1225.2874	318.4985	1211.108	-1227.2883	139.0194	1413.4858	-1400.8947	128.2522	1348.1799	-1514.8768	120.0708	1297.7073	-1557.5275	153.7462	1333.7928	-1574.2515	166.8245	1296.9658	-1682.6101	190.0434	1211.057	-1632.6949	197.1532	1266.0214	-1768.0725	203.954	1229.7257	-1822.6161	242.3515	1261.5791	-1815.677	312.9483	1191.0657	-1860.5328	255.9843	1212.7872	-1903.7256	156.4129	1402.7678	-1042.0912	167.7738	1335.8038	-909.4651	218.1151	1327.624	-866.7114	173.1242	1316.0624	-846.0529	165.9248	1289.4507	-795.5281	222.0199	1196.0154	-809.4259	224.0811	1271.9528	-673.1769	275.0029	1260.7842	-633.6569	230.2658	1247.6591	-613.29	313.3384	1180.5238	-580.9633	247.1641	1212.4937	-544.2072	1512.0686	1285.4426	-2307.3967	1540.661	1283.4014	-83.9426	204.9298	481.9321	-1355.6706	184.8659	479.2006	-1082.9384	119.8652	81.4253	-1049.6604	146.2592	80.256	-1393.2968	233.0191	873.4628	-1139.762	230.0551	873.7471	-1304.671
609	3.04	350.491	1575.4459	-1216.8663	291.9514	1589.5388	-1140.0251	287.0798	1589.9812	-1292.2039	127.9721	1448.4138	-1212.5244	75.7664	1243.1926	-1227.3268	71.6726	1211.0466	-1231.4006	67.3222	1150.2675	-1179.3536	76.0026	1149.2836	-1228.3098	90.1992	1108.8831	-1227.2584	67.5841	1086.3191	-1226.5731	69.1123	1026.7638	-1173.4346	61.4968	1024.5334	-1223.0264	72.164	975.4124	-1248.4275	79.0963	985.0361	-1198.6189	48.788	926.876	-1209.7452	288.5437	942.5211	-1337.0375	292.6389	942.1222	-1109.2743	83.704	991.4034	-1260.1847	84.3535	990.0599	-1170.9164	202.5852	737.5633	-1444.2863	153.4153	676.9365	-1427.4103	201.7452	675.5693	-1441.4409	193.1592	497.7796	-1427.6005	216.694	466.0926	-1283.7339	152.9283	442.2426	-1428.604	145.3481	326.1862	-1450.0269	102.0517	260.2586	-1444.6973	151.4129	264.3384	-1450.2632	126.1858	85.3387	-1434.1301	169.4246	96.3173	-1350.4816	78.4365	38.94	-1374.825	289.673	47.3112	-1391.231	238.5864	32.0942	-1492.1586	174.9871	708.2947	-1006.7072	206.3551	636.0673	-992.9699	160.6083	647.6546	-1009.8796	160.5945	496.9341	-1014.0851	209.1326	461.4665	-1151.8015	116.6275	442.5053	-1015.6163	91.4011	323.3067	-998.6104	130.9884	256.1002	-983.27	84.9512	262.2114	-1002.4679	90.0714	86.7593	-1016.7985	153.0807	97.0062	-1084.2706	58.0702	38.2458	-1077.6759	261.605	43.2121	-1022.2393	202.3423	40.9527	-937.1937	278.8473	1368.514	-1225.2687	318.4893	1211.111	-1227.2649	139.0002	1413.4828	-1400.8694	128.2276	1348.1674	-1514.8507	120.0838	1297.7012	-1557.5149	153.741	1333.7955	-1574.2297	166.8323	1296.968	-1682.5989	190.0361	1211.0443	-1632.6785	197.1653	1266.0109	-1768.0315	203.9657	1229.7234	-1822.605	242.3696	1261.567	-1815.6566	312.94	1191.0345	-1860.5018	256.0038	1212.7579	-1903.6936	156.3941	1402.7463	-1042.0668	167.7512	1335.7672	-909.4686	218.0577	1327.585	-866.7002	173.0947	1316.0134	-846.0391	165.9062	1289.3748	-795.5181	222.0093	1195.9705	-809.4352	224.0727	1271.7371	-673.239	275.0738	1260.579	-633.5023	230.2555	1247.5797	-613.2957	313.3315	1180.4604	-580.9697	247.1552	1212.413	-544.206	1512.073	1285.4403	-2307.3962	1540.6578	1283.394	-83.9475	204.9266	481.9361	-1355.6672	184.8636	479.2003	-1082.9433	119.8674	81.4259	-1049.6596	146.2613	80.2566	-1393.2962	233.0168	873.4647	-1139.7595	230.0517	873.7536	-1304.669
610	3.045	350.4791	1575.4537	-1216.8201	291.9475	1589.5442	-1139.9924	287.0648	1589.9799	-1292.1708	127.9628	1448.3987	-1212.5065	75.7395	1243.1915	-1227.3251	71.6588	1211.0377	-1231.3951	67.3204	1150.2609	-1179.3412	76.0055	1149.2684	-1228.3025	90.1992	1108.8861	-1227.2507	67.5795	1086.3212	-1226.5579	69.1089	1026.7679	-1173.4347	61.4907	1024.5331	-1223.0363	72.1134	975.4263	-1248.423	79.113	984.978	-1198.5995	48.6932	926.8896	-1209.7592	288.5424	942.5286	-1337.0314	292.6311	942.1213	-1109.2748	83.7088	991.3982	-1260.1691	84.3379	990.0595	-1170.9199	202.5861	737.5611	-1444.2899	153.4142	676.9277	-1427.427	201.7451	675.5538	-1441.4354	193.1457	497.7776	-1427.593	216.6725	466.1001	-1283.7467	152.9181	442.2456	-1428.6096	145.3419	326.1877	-1450.0337	102.043	260.2598	-1444.6927	151.405	264.3331	-1450.2594	126.1882	85.3412	-1434.1318	169.4228	96.3144	-1350.4839	78.4371	38.9359	-1374.8279	289.6699	47.307	-1391.2335	238.578	32.0879	-1492.1614	174.9872	708.2944	-1006.7084	206.3591	636.0609	-992.9794	160.5954	647.6449	-1009.8783	160.5836	496.9339	-1014.0825	209.1439	461.4749	-1151.798	116.6235	442.5025	-1015.6241	91.1743	323.3039	-998.3028	130.9897	256.1009	-983.2758	84.9373	262.2118	-1002.4617	90.0648	86.7554	-1016.7981	153.078	97.0044	-1084.2717	58.0583	38.2466	-1077.6737	261.6066	43.2063	-1022.2477	202.3429	40.9557	-937.1968	278.8283	1368.5109	-1225.2444	318.4681	1211.1051	-1227.252	138.976	1413.4836	-1400.85	128.2265	1348.1554	-1514.8228	120.0922	1297.7	-1557.515	153.7344	1333.7933	-1574.2103	166.8616	1296.969	-1682.5875	190.0698	1210.9515	-1632.521	197.206	1266.0007	-1768.0432	203.9805	1229.723	-1822.5804	242.3882	1261.5468	-1815.6287	312.9568	1191.0109	-1860.4783	256.0096	1212.7437	-1903.6702	156.3865	1402.7288	-1042.0387	167.693	1335.7415	-909.4539	218.0202	1327.5358	-866.6769	173.0748	1315.9774	-846.0161	165.8872	1289.2996	-795.501	222.0293	1195.9282	-809.4373	224.0641	1271.7928	-673.1924	275.0178	1260.7491	-633.6023	230.2992	1247.4406	-613.2867	313.3171	1180.3953	-580.9661	247.1487	1212.3384	-544.2042	1512.057	1285.4508	-2307.3833	1540.6597	1283.4015	-83.9533	204.9091	481.9388	-1355.6699	184.8637	479.2044	-1082.9402	119.8626	81.4231	-1049.66	146.262	80.2564	-1393.2982	233.0119	873.4633	-1139.7609	230.0513	873.7583	-1304.670
611	3.05	350.4863	1575.4554	-1216.7889	291.9098	1589.5416	-1139.9608	287.0473	1589.9863	-1292.1382	127.9388	1448.4022	-1212.4733	75.7184	1243.193	-1227.3101	71.6372	1211.031	-1231.3872	67.3208	1150.2566	-1179.3389	76.0032	1149.2758	-1228.3	90.1926	1108.8918	-1227.2521	67.5764	1086.3215	-1226.5609	69.0952	1026.7695	-1173.4344	61.4836	1024.5355	-1223.0381	72.1571	975.411	-1248.3905	79.0987	985.0181	-1198.6064	48.7844	926.8574	-1209.7775	288.535	942.5332	-1337.0229	292.6147	942.1161	-1109.2683	83.7139	991.3974	-1260.1598	84.328	990.0555	-1170.9236	202.5802	737.5666	-1444.292	153.4126	676.9371	-1427.4242	201.7214	675.5593	-1441.4368	193.1454	497.779	-1427.5986	216.6566	466.1023	-1283.7444	152.9106	442.249	-1428.6116	145.3342	326.1942	-1450.0405	102.0453	260.2584	-1444.702	151.3977	264.3399	-1450.2606	126.1795	85.3383	-1434.1298	169.4268	96.3153	-1350.4871	78.4528	38.9369	-1374.812	289.673	47.3135	-1391.2354	238.5745	32.0894	-1492.1561	174.9709	708.2913	-1006.7077	206.3442	636.0644	-992.9642	160.593	647.6496	-1009.8743	160.5752	496.9361	-1014.0919	209.1396	461.4751	-1151.7941	116.6207	442.5063	-1015.6259	91.306	323.3007	-998.5781	130.9962	256.1172	-983.2883	84.9324	262.2164	-1002.4539	90.0607	86.7634	-1016.7972	153.0832	97.0025	-1084.2714	58.0588	38.2518	-1077.6719	261.602	43.2086	-1022.2477	202.3457	40.9485	-937.1968	278.8	1368.5027	-1225.224	318.4385	1211.0988	-1227.2305	138.9606	1413.4791	-1400.8351	128.2361	1348.1582	-1514.826	120.0767	1297.7064	-1557.5114	153.7364	1333.7942	-1574.1915	166.8688	1296.9656	-1682.5735	190.0637	1210.9443	-1632.5043	197.2351	1265.9832	-1767.9879	203.9923	1229.7115	-1822.5548	242.3999	1261.5326	-1815.6028	312.9505	1190.9738	-1860.4634	255.9824	1212.7037	-1903.639	156.3745	1402.7136	-1042.0162	167.6986	1335.702	-909.4182	217.9944	1327.4928	-866.6695	173.0459	1315.9371	-846.0107	165.8504	1289.2233	-795.4969	222.0095	1195.8807	-809.4385	224.0286	1271.7437	-673.1855	274.91	1260.5748	-633.6708	230.2483	1247.4155	-613.2664	313.3101	1180.3337	-580.9742	247.1449	1212.2656	-544.2029	1512.0742	1285.4512	-2307.3965	1540.6638	1283.4	-83.9506	204.901	481.9406	-1355.6715	184.8574	479.2056	-1082.943	119.8634	81.4261	-1049.6593	146.2598	80.2553	-1393.2987	232.9965	873.4596	-1139.7587	230.0425	873.7616	-1304.668
